<?xml version="1.0" encoding="UTF-8"?>
<svg xmlns="http://www.w3.org/2000/svg" xmlns:xlink="http://www.w3.org/1999/xlink" width="99pt" height="31pt" viewBox="0 0 99 31" version="1.1">
<g id="surface1">
<path style=" stroke:none;fill-rule:nonzero;fill:rgb(0.392157%,14.117647%,40%);fill-opacity:1;" d="M 4.6875 19.125 C 4.347656 18.949219 3.933594 19.085938 3.757812 19.429688 L 1.207031 24.484375 C 1.035156 24.828125 1.167969 25.25 1.507812 25.425781 C 1.851562 25.601562 2.265625 25.464844 2.441406 25.121094 L 4.992188 20.0625 C 5.164062 19.71875 5.03125 19.296875 4.6875 19.125 Z M 4.6875 19.125 "/>
<path style=" stroke:none;fill-rule:nonzero;fill:rgb(0.392157%,14.117647%,40%);fill-opacity:1;" d="M 2.125 17.808594 C 1.785156 17.632812 1.367188 17.769531 1.195312 18.113281 L 0.0742188 20.328125 C -0.0976562 20.671875 0.0390625 21.09375 0.378906 21.269531 C 0.71875 21.441406 1.136719 21.304688 1.308594 20.964844 L 2.425781 18.746094 C 2.601562 18.402344 2.464844 17.980469 2.125 17.808594 Z M 2.125 17.808594 "/>
<path style=" stroke:none;fill-rule:nonzero;fill:rgb(0.392157%,14.117647%,40%);fill-opacity:1;" d="M 15.359375 24.601562 C 15.699219 24.777344 15.832031 25.199219 15.660156 25.542969 L 13.109375 30.597656 C 12.933594 30.941406 12.519531 31.078125 12.179688 30.902344 C 11.839844 30.730469 11.703125 30.308594 11.875 29.964844 L 14.425781 24.90625 C 14.601562 24.566406 15.015625 24.429688 15.359375 24.601562 Z M 15.359375 24.601562 "/>
<path style=" stroke:none;fill-rule:nonzero;fill:rgb(0.392157%,14.117647%,40%);fill-opacity:1;" d="M 17.921875 25.917969 C 18.261719 26.09375 18.398438 26.515625 18.226562 26.859375 L 17.105469 29.074219 C 16.933594 29.417969 16.515625 29.554688 16.175781 29.382812 C 15.835938 29.207031 15.699219 28.785156 15.871094 28.441406 L 16.992188 26.226562 C 17.164062 25.882812 17.582031 25.746094 17.921875 25.917969 Z M 17.921875 25.917969 "/>
<path style=" stroke:none;fill-rule:nonzero;fill:rgb(100%,84.705882%,0%);fill-opacity:1;" d="M 13.472656 5.59375 L 14.5 6.902344 L 10.339844 15.148438 L 9 14.457031 Z M 13.472656 5.59375 "/>
<path style=" stroke:none;fill-rule:nonzero;fill:rgb(100%,100%,100%);fill-opacity:1;" d="M 20.703125 4 L 21.328125 8.089844 L 19.371094 8.007812 L 18.339844 6.214844 C 18.203125 5.976562 17.941406 5.84375 17.671875 5.871094 L 15.625 6.085938 L 14.410156 4.539062 L 18.058594 2.640625 Z M 20.703125 4 "/>
<path style=" stroke:none;fill-rule:nonzero;fill:rgb(100%,84.705882%,0%);fill-opacity:1;" d="M 15.765625 7.472656 L 17.367188 7.304688 L 18.128906 8.628906 L 13.914062 16.984375 L 11.574219 15.78125 Z M 15.765625 7.472656 "/>
<path style=" stroke:none;fill-rule:nonzero;fill:rgb(100%,84.705882%,0%);fill-opacity:1;" d="M 19.292969 9.402344 L 21.03125 9.476562 L 16.558594 18.339844 L 15.148438 17.617188 Z M 19.292969 9.402344 "/>
<path style=" stroke:none;fill-rule:nonzero;fill:rgb(100%,84.705882%,0%);fill-opacity:1;" d="M 3.800781 15.59375 C 3.796875 15.535156 3.804688 15.386719 3.949219 15.285156 L 8.703125 11.96875 L 6.167969 17 L 3.988281 15.878906 C 3.832031 15.800781 3.804688 15.652344 3.800781 15.59375 Z M 3.800781 15.59375 "/>
<path style=" stroke:none;fill-rule:nonzero;fill:rgb(100%,100%,100%);fill-opacity:1;" d="M 8.371094 15.703125 L 15.933594 19.585938 L 14.957031 21.515625 L 13.082031 20.550781 L 9.277344 18.59375 L 7.398438 17.632812 Z M 8.371094 15.703125 "/>
<path style=" stroke:none;fill-rule:nonzero;fill:rgb(100%,36.470588%,13.333333%);fill-opacity:1;" d="M 11.339844 24.917969 L 10.949219 24.507812 C 10.714844 24.261719 10.339844 24.21875 10.058594 24.414062 L 8.027344 25.816406 L 7.957031 23.335938 C 7.953125 23.074219 7.800781 22.847656 7.582031 22.734375 C 7.511719 22.699219 7.4375 22.675781 7.359375 22.664062 L 6.800781 22.585938 L 9.113281 20.078125 L 11.988281 21.554688 Z M 11.339844 24.917969 "/>
<path style=" stroke:none;fill-rule:nonzero;fill:rgb(100%,84.705882%,0%);fill-opacity:1;" d="M 18.710938 23.25 C 18.660156 23.28125 18.527344 23.347656 18.367188 23.265625 L 16.191406 22.148438 L 18.730469 17.117188 L 18.871094 22.945312 C 18.875 23.125 18.757812 23.21875 18.710938 23.25 Z M 18.710938 23.25 "/>
<path style=" stroke:none;fill-rule:nonzero;fill:rgb(0.392157%,14.117647%,40%);fill-opacity:1;" d="M 20.253906 22.914062 L 20.050781 14.5 L 22.753906 9.140625 C 22.757812 9.136719 22.757812 9.132812 22.757812 9.128906 C 22.765625 9.117188 22.769531 9.105469 22.773438 9.09375 C 22.785156 9.066406 22.796875 9.039062 22.804688 9.011719 C 22.808594 8.996094 22.808594 8.984375 22.8125 8.96875 C 22.820312 8.9375 22.824219 8.90625 22.828125 8.875 C 22.828125 8.867188 22.828125 8.859375 22.828125 8.851562 C 22.832031 8.847656 22.828125 8.84375 22.828125 8.839844 C 22.832031 8.800781 22.828125 8.757812 22.824219 8.714844 L 22.820312 8.710938 L 21.65625 1.070312 C 21.59375 0.671875 21.34375 0.320312 20.984375 0.136719 C 20.628906 -0.046875 20.199219 -0.046875 19.84375 0.140625 L 13.035156 3.683594 L 13.027344 3.6875 C 12.992188 3.707031 12.957031 3.730469 12.925781 3.753906 C 12.921875 3.757812 12.917969 3.757812 12.917969 3.761719 C 12.910156 3.765625 12.90625 3.773438 12.898438 3.777344 C 12.875 3.796875 12.851562 3.820312 12.832031 3.84375 C 12.824219 3.855469 12.8125 3.863281 12.804688 3.875 C 12.785156 3.898438 12.769531 3.921875 12.757812 3.949219 C 12.75 3.960938 12.742188 3.96875 12.734375 3.980469 C 12.734375 3.984375 12.730469 3.988281 12.730469 3.992188 L 10.027344 9.351562 L 3.164062 14.136719 C 2.65625 14.488281 2.378906 15.070312 2.421875 15.6875 C 2.460938 16.304688 2.8125 16.84375 3.363281 17.125 L 6.15625 18.558594 L 7.832031 19.417969 L 4.875 22.625 C 4.699219 22.816406 4.644531 23.089844 4.730469 23.335938 C 4.820312 23.582031 5.035156 23.757812 5.289062 23.792969 L 6.59375 23.96875 L 6.679688 27.136719 C 6.6875 27.394531 6.832031 27.625 7.058594 27.738281 C 7.285156 27.855469 7.554688 27.839844 7.761719 27.695312 L 10.355469 25.898438 L 11.261719 26.859375 C 11.441406 27.046875 11.710938 27.121094 11.957031 27.046875 C 12.207031 26.972656 12.390625 26.765625 12.441406 26.511719 L 13.273438 22.214844 L 14.949219 23.074219 L 17.742188 24.507812 C 18.289062 24.789062 18.925781 24.761719 19.445312 24.429688 C 19.964844 24.101562 20.269531 23.53125 20.253906 22.914062 Z M 13.472656 5.59375 L 14.5 6.902344 L 10.339844 15.148438 L 9 14.457031 Z M 20.703125 4 L 21.328125 8.089844 L 19.371094 8.007812 L 18.339844 6.214844 C 18.203125 5.976562 17.941406 5.84375 17.671875 5.871094 L 15.625 6.085938 L 14.410156 4.539062 L 18.058594 2.640625 Z M 15.765625 7.472656 L 17.367188 7.304688 L 18.128906 8.628906 L 13.914062 16.984375 L 11.574219 15.78125 Z M 19.292969 9.402344 L 21.03125 9.476562 L 16.558594 18.339844 L 15.148438 17.617188 Z M 3.800781 15.59375 C 3.796875 15.535156 3.804688 15.386719 3.949219 15.285156 L 8.703125 11.96875 L 6.167969 17 L 3.988281 15.878906 C 3.832031 15.800781 3.804688 15.652344 3.800781 15.59375 Z M 8.371094 15.703125 L 15.933594 19.585938 L 14.957031 21.515625 L 13.082031 20.550781 L 9.277344 18.59375 L 7.398438 17.632812 Z M 11.339844 24.917969 L 10.949219 24.507812 C 10.714844 24.261719 10.339844 24.21875 10.058594 24.414062 L 8.027344 25.816406 L 7.957031 23.335938 C 7.953125 23.074219 7.800781 22.847656 7.582031 22.734375 C 7.511719 22.699219 7.4375 22.675781 7.359375 22.664062 L 6.800781 22.585938 L 9.113281 20.078125 L 11.988281 21.554688 Z M 18.710938 23.25 C 18.660156 23.28125 18.527344 23.347656 18.367188 23.265625 L 16.191406 22.148438 L 18.730469 17.117188 L 18.871094 22.945312 C 18.875 23.125 18.757812 23.21875 18.710938 23.25 Z M 18.710938 23.25 "/>
<path style=" stroke:none;fill-rule:nonzero;fill:rgb(0.392157%,14.117647%,40%);fill-opacity:1;" d="M 37.53125 10.171875 C 38.285156 10.359375 38.867188 10.714844 39.277344 11.230469 C 39.6875 11.75 39.894531 12.394531 39.894531 13.167969 C 39.894531 14.136719 39.566406 14.921875 38.917969 15.515625 C 38.265625 16.113281 37.328125 16.410156 36.105469 16.410156 L 31.28125 16.410156 L 31.28125 4.664062 L 35.480469 4.664062 C 36.714844 4.664062 37.660156 4.90625 38.308594 5.390625 C 38.960938 5.875 39.285156 6.585938 39.285156 7.523438 C 39.285156 8.097656 39.144531 8.621094 38.859375 9.097656 C 38.574219 9.570312 38.132812 9.925781 37.53125 10.15625 Z M 33.546875 6.714844 L 33.546875 9.476562 L 35.203125 9.476562 C 35.695312 9.476562 36.109375 9.359375 36.449219 9.121094 C 36.789062 8.882812 36.957031 8.539062 36.957031 8.085938 C 36.957031 7.171875 36.324219 6.714844 35.054688 6.714844 Z M 35.414062 14.359375 C 36.050781 14.359375 36.550781 14.230469 36.925781 13.976562 C 37.296875 13.726562 37.480469 13.355469 37.480469 12.871094 C 37.480469 12.394531 37.308594 12.023438 36.964844 11.753906 C 36.621094 11.484375 36.109375 11.347656 35.433594 11.347656 L 33.546875 11.347656 L 33.546875 14.359375 Z M 35.414062 14.359375 "/>
<path style=" stroke:none;fill-rule:nonzero;fill:rgb(0.392157%,14.117647%,40%);fill-opacity:1;" d="M 41.335938 16.410156 L 41.335938 4.230469 L 43.484375 4.230469 L 43.484375 16.410156 Z M 41.335938 16.410156 "/>
<path style=" stroke:none;fill-rule:nonzero;fill:rgb(0.392157%,14.117647%,40%);fill-opacity:1;" d="M 51.0625 8.335938 L 53.195312 8.335938 L 53.195312 16.410156 L 51.160156 16.410156 L 51.160156 15.433594 L 51.109375 15.433594 C 50.554688 16.171875 49.753906 16.542969 48.714844 16.542969 C 47.601562 16.542969 46.683594 16.160156 45.96875 15.394531 C 45.253906 14.625 44.894531 13.625 44.894531 12.390625 C 44.894531 11.175781 45.253906 10.175781 45.96875 9.386719 C 46.683594 8.597656 47.585938 8.203125 48.667969 8.203125 C 49.664062 8.203125 50.445312 8.550781 51.011719 9.246094 L 51.0625 9.246094 Z M 49.109375 14.605469 C 49.679688 14.605469 50.160156 14.402344 50.554688 13.996094 C 50.945312 13.585938 51.144531 13.058594 51.144531 12.40625 C 51.144531 11.753906 50.953125 11.214844 50.570312 10.785156 C 50.1875 10.355469 49.707031 10.140625 49.125 10.140625 C 48.535156 10.140625 48.042969 10.347656 47.652344 10.761719 C 47.257812 11.171875 47.058594 11.722656 47.058594 12.40625 C 47.058594 13.058594 47.25 13.585938 47.632812 13.996094 C 48.015625 14.402344 48.507812 14.605469 49.109375 14.605469 Z M 49.109375 14.605469 "/>
<path style=" stroke:none;fill-rule:nonzero;fill:rgb(0.392157%,14.117647%,40%);fill-opacity:1;" d="M 57.476562 16.542969 C 56.21875 16.542969 55.132812 16.152344 54.226562 15.367188 L 55.277344 13.863281 C 55.933594 14.492188 56.671875 14.804688 57.492188 14.804688 C 57.796875 14.804688 58.039062 14.746094 58.210938 14.625 C 58.386719 14.503906 58.476562 14.34375 58.476562 14.144531 C 58.476562 13.96875 58.371094 13.820312 58.164062 13.695312 C 57.957031 13.574219 57.574219 13.425781 57.015625 13.25 C 56.238281 12.984375 55.636719 12.65625 55.203125 12.265625 C 54.769531 11.875 54.554688 11.324219 54.554688 10.621094 C 54.554688 9.902344 54.828125 9.320312 55.375 8.875 C 55.921875 8.425781 56.609375 8.203125 57.441406 8.203125 C 58.535156 8.203125 59.507812 8.539062 60.363281 9.210938 L 59.328125 10.800781 C 58.726562 10.226562 58.085938 9.941406 57.410156 9.941406 C 57.210938 9.941406 57.03125 9.992188 56.867188 10.097656 C 56.703125 10.203125 56.621094 10.355469 56.621094 10.554688 C 56.621094 10.707031 56.71875 10.847656 56.910156 10.976562 C 57.101562 11.101562 57.410156 11.246094 57.835938 11.414062 C 58.273438 11.578125 58.59375 11.703125 58.804688 11.785156 C 59.011719 11.867188 59.257812 11.988281 59.542969 12.148438 C 59.824219 12.308594 60.023438 12.464844 60.140625 12.613281 C 60.253906 12.761719 60.359375 12.957031 60.453125 13.199219 C 60.542969 13.441406 60.589844 13.71875 60.589844 14.027344 C 60.589844 14.777344 60.324219 15.382812 59.796875 15.847656 C 59.265625 16.3125 58.492188 16.542969 57.476562 16.542969 Z M 57.476562 16.542969 "/>
<path style=" stroke:none;fill-rule:nonzero;fill:rgb(0.392157%,14.117647%,40%);fill-opacity:1;" d="M 64.3125 16.542969 C 63.601562 16.542969 63.046875 16.316406 62.640625 15.863281 C 62.234375 15.414062 62.035156 14.746094 62.035156 13.863281 L 62.035156 10.121094 L 61.082031 10.121094 L 61.082031 8.335938 L 62.035156 8.335938 L 62.035156 5.6875 L 64.167969 5.457031 L 64.167969 8.335938 L 66.347656 8.335938 L 66.347656 10.121094 L 64.167969 10.121094 L 64.167969 13.566406 C 64.167969 14.25 64.402344 14.589844 64.871094 14.589844 C 65.175781 14.589844 65.515625 14.496094 65.886719 14.308594 L 66.445312 16.046875 C 65.832031 16.378906 65.125 16.542969 64.3125 16.542969 Z M 64.3125 16.542969 "/>
<path style=" stroke:none;fill-rule:nonzero;fill:rgb(0.392157%,14.117647%,40%);fill-opacity:1;" d="M 77.089844 16.542969 C 75.339844 16.542969 73.914062 15.976562 72.808594 14.847656 C 71.703125 13.714844 71.152344 12.28125 71.152344 10.535156 C 71.152344 8.78125 71.703125 7.339844 72.808594 6.210938 C 73.914062 5.078125 75.339844 4.511719 77.089844 4.511719 C 78.816406 4.511719 80.234375 5.070312 81.347656 6.183594 C 82.457031 7.300781 83.011719 8.75 83.011719 10.535156 C 83.011719 12.324219 82.457031 13.769531 81.347656 14.878906 C 80.234375 15.988281 78.816406 16.542969 77.089844 16.542969 Z M 77.105469 14.375 C 78.113281 14.375 78.949219 14.011719 79.617188 13.285156 C 80.28125 12.554688 80.617188 11.640625 80.617188 10.535156 C 80.617188 9.433594 80.28125 8.519531 79.617188 7.789062 C 78.949219 7.0625 78.113281 6.699219 77.105469 6.699219 C 76.066406 6.699219 75.214844 7.066406 74.546875 7.804688 C 73.878906 8.546875 73.546875 9.457031 73.546875 10.535156 C 73.546875 11.617188 73.878906 12.527344 74.546875 13.265625 C 75.214844 14.007812 76.066406 14.375 77.105469 14.375 Z M 77.105469 14.375 "/>
<path style=" stroke:none;fill-rule:nonzero;fill:rgb(0.392157%,14.117647%,40%);fill-opacity:1;" d="M 84.78125 16.410156 L 84.78125 10.121094 L 83.945312 10.121094 L 83.945312 8.335938 L 84.78125 8.335938 L 84.78125 6.945312 C 84.78125 6.007812 85 5.296875 85.4375 4.8125 C 85.875 4.324219 86.5 4.082031 87.308594 4.082031 C 88.105469 4.082031 88.792969 4.28125 89.375 4.679688 L 88.949219 6.367188 C 88.488281 6.136719 88.089844 6.019531 87.75 6.019531 C 87.203125 6.019531 86.929688 6.378906 86.929688 7.09375 L 86.929688 8.335938 L 88.71875 8.335938 L 88.71875 10.121094 L 86.929688 10.121094 L 86.929688 16.410156 Z M 84.78125 16.410156 "/>
<path style=" stroke:none;fill-rule:nonzero;fill:rgb(0.392157%,14.117647%,40%);fill-opacity:1;" d="M 90.078125 16.410156 L 90.078125 10.121094 L 89.242188 10.121094 L 89.242188 8.335938 L 90.078125 8.335938 L 90.078125 6.945312 C 90.078125 6.007812 90.296875 5.296875 90.734375 4.8125 C 91.171875 4.324219 91.796875 4.082031 92.605469 4.082031 C 93.402344 4.082031 94.09375 4.28125 94.671875 4.679688 L 94.246094 6.367188 C 93.785156 6.136719 93.386719 6.019531 93.046875 6.019531 C 92.5 6.019531 92.226562 6.378906 92.226562 7.09375 L 92.226562 8.335938 L 94.015625 8.335938 L 94.015625 10.121094 L 92.226562 10.121094 L 92.226562 16.410156 Z M 90.078125 16.410156 "/>
<path style=" stroke:none;fill-rule:nonzero;fill:rgb(0.392157%,14.117647%,40%);fill-opacity:1;" d="M 33.722656 26.070312 L 33.722656 20.292969 L 31.785156 20.292969 L 31.785156 19.558594 L 36.460938 19.558594 L 36.460938 20.292969 L 34.515625 20.292969 L 34.515625 26.070312 Z M 33.722656 26.070312 "/>
<path style=" stroke:none;fill-rule:nonzero;fill:rgb(0.392157%,14.117647%,40%);fill-opacity:1;" d="M 39.503906 21.605469 L 40.242188 21.605469 L 40.242188 26.070312 L 39.503906 26.070312 L 39.503906 25.328125 L 39.496094 25.328125 C 39.125 25.859375 38.640625 26.125 38.042969 26.125 C 37.515625 26.125 37.105469 25.972656 36.8125 25.664062 C 36.523438 25.355469 36.378906 24.886719 36.378906 24.265625 L 36.378906 21.605469 L 37.113281 21.605469 L 37.113281 24.054688 C 37.113281 24.550781 37.203125 24.90625 37.382812 25.121094 C 37.5625 25.339844 37.832031 25.449219 38.195312 25.449219 C 38.558594 25.449219 38.867188 25.296875 39.121094 24.992188 C 39.378906 24.691406 39.503906 24.28125 39.503906 23.769531 Z M 39.503906 21.605469 "/>
<path style=" stroke:none;fill-rule:nonzero;fill:rgb(0.392157%,14.117647%,40%);fill-opacity:1;" d="M 42.851562 26.125 C 42.078125 26.125 41.695312 25.664062 41.695312 24.742188 L 41.695312 22.246094 L 41.132812 22.246094 L 41.132812 21.605469 L 41.695312 21.605469 L 41.695312 20.082031 L 42.429688 20 L 42.429688 21.605469 L 43.902344 21.605469 L 43.902344 22.246094 L 42.429688 22.246094 L 42.429688 24.632812 C 42.429688 24.90625 42.472656 25.109375 42.554688 25.238281 C 42.636719 25.363281 42.777344 25.429688 42.976562 25.429688 C 43.207031 25.429688 43.457031 25.351562 43.722656 25.199219 L 43.921875 25.851562 C 43.59375 26.035156 43.238281 26.125 42.851562 26.125 Z M 42.851562 26.125 "/>
<path style=" stroke:none;fill-rule:nonzero;fill:rgb(0.392157%,14.117647%,40%);fill-opacity:1;" d="M 46.722656 26.125 C 46.042969 26.125 45.492188 25.910156 45.066406 25.476562 C 44.644531 25.042969 44.429688 24.496094 44.429688 23.84375 C 44.429688 23.1875 44.644531 22.644531 45.066406 22.207031 C 45.492188 21.769531 46.042969 21.550781 46.722656 21.550781 C 47.375 21.550781 47.917969 21.765625 48.347656 22.191406 C 48.777344 22.621094 48.996094 23.171875 48.996094 23.84375 C 48.996094 24.515625 48.777344 25.0625 48.347656 25.488281 C 47.917969 25.914062 47.375 26.125 46.722656 26.125 Z M 46.722656 25.449219 C 47.152344 25.449219 47.515625 25.296875 47.808594 24.992188 C 48.101562 24.691406 48.25 24.308594 48.25 23.84375 C 48.25 23.371094 48.105469 22.988281 47.8125 22.6875 C 47.523438 22.386719 47.15625 22.238281 46.722656 22.238281 C 46.265625 22.238281 45.894531 22.390625 45.609375 22.699219 C 45.320312 23.011719 45.175781 23.390625 45.175781 23.84375 C 45.175781 24.296875 45.320312 24.675781 45.609375 24.984375 C 45.894531 25.292969 46.265625 25.449219 46.722656 25.449219 Z M 46.722656 25.449219 "/>
<path style=" stroke:none;fill-rule:nonzero;fill:rgb(0.392157%,14.117647%,40%);fill-opacity:1;" d="M 52.320312 21.550781 C 52.410156 21.550781 52.472656 21.554688 52.503906 21.558594 L 52.503906 22.386719 C 52.371094 22.371094 52.273438 22.367188 52.210938 22.367188 C 51.800781 22.367188 51.472656 22.511719 51.230469 22.796875 C 50.988281 23.085938 50.867188 23.457031 50.867188 23.917969 L 50.867188 26.070312 L 50.128906 26.070312 L 50.128906 21.605469 L 50.867188 21.605469 L 50.867188 22.394531 L 50.875 22.394531 C 51.222656 21.832031 51.703125 21.550781 52.320312 21.550781 Z M 52.320312 21.550781 "/>
<path style=" stroke:none;fill-rule:nonzero;fill:rgb(0.392157%,14.117647%,40%);fill-opacity:1;" d="M 53.8125 20.78125 C 53.660156 20.78125 53.535156 20.730469 53.433594 20.628906 C 53.335938 20.527344 53.285156 20.402344 53.285156 20.257812 C 53.285156 20.109375 53.335938 19.988281 53.433594 19.886719 C 53.535156 19.785156 53.660156 19.734375 53.8125 19.734375 C 53.957031 19.734375 54.082031 19.785156 54.183594 19.890625 C 54.289062 19.996094 54.339844 20.117188 54.339844 20.257812 C 54.339844 20.402344 54.289062 20.527344 54.183594 20.628906 C 54.082031 20.730469 53.957031 20.78125 53.8125 20.78125 Z M 53.4375 26.070312 L 53.4375 21.605469 L 54.175781 21.605469 L 54.175781 26.070312 Z M 53.4375 26.070312 "/>
<path style=" stroke:none;fill-rule:nonzero;fill:rgb(0.392157%,14.117647%,40%);fill-opacity:1;" d="M 58.003906 21.550781 C 58.492188 21.550781 58.882812 21.707031 59.164062 22.023438 C 59.449219 22.335938 59.59375 22.804688 59.59375 23.421875 L 59.59375 26.070312 L 58.855469 26.070312 L 58.855469 23.632812 C 58.855469 22.703125 58.496094 22.238281 57.773438 22.238281 C 57.351562 22.238281 57.011719 22.378906 56.761719 22.664062 C 56.511719 22.949219 56.382812 23.339844 56.382812 23.84375 L 56.382812 26.070312 L 55.648438 26.070312 L 55.648438 21.605469 L 56.382812 21.605469 L 56.382812 22.386719 L 56.394531 22.386719 C 56.78125 21.828125 57.316406 21.550781 58.003906 21.550781 Z M 58.003906 21.550781 "/>
<path style=" stroke:none;fill-rule:nonzero;fill:rgb(0.392157%,14.117647%,40%);fill-opacity:1;" d="M 64.285156 21.605469 L 65.011719 21.605469 L 65.011719 25.730469 C 65.011719 26.417969 64.832031 26.957031 64.480469 27.351562 C 64.125 27.746094 63.578125 27.941406 62.839844 27.941406 C 62.171875 27.941406 61.570312 27.78125 61.039062 27.457031 L 61.210938 26.769531 C 61.761719 27.078125 62.292969 27.234375 62.800781 27.234375 C 63.28125 27.234375 63.648438 27.113281 63.90625 26.863281 C 64.164062 26.617188 64.292969 26.304688 64.292969 25.925781 L 64.292969 25.300781 L 64.273438 25.300781 C 63.90625 25.757812 63.40625 25.988281 62.773438 25.988281 C 62.167969 25.988281 61.660156 25.785156 61.246094 25.375 C 60.835938 24.964844 60.628906 24.433594 60.628906 23.777344 C 60.628906 23.144531 60.832031 22.613281 61.234375 22.1875 C 61.636719 21.761719 62.136719 21.550781 62.738281 21.550781 C 63.363281 21.550781 63.871094 21.777344 64.265625 22.230469 L 64.285156 22.230469 Z M 62.828125 25.292969 C 63.269531 25.292969 63.628906 25.148438 63.902344 24.855469 C 64.175781 24.566406 64.308594 24.195312 64.308594 23.742188 C 64.308594 23.300781 64.167969 22.941406 63.886719 22.664062 C 63.605469 22.386719 63.253906 22.246094 62.828125 22.246094 C 62.410156 22.246094 62.066406 22.390625 61.792969 22.671875 C 61.519531 22.957031 61.382812 23.316406 61.382812 23.75 C 61.382812 24.214844 61.523438 24.589844 61.800781 24.871094 C 62.082031 25.152344 62.421875 25.292969 62.828125 25.292969 Z M 62.828125 25.292969 "/>
</g>
</svg>
